<svg width="50" height="50" viewBox="0 0 50 50" fill="none" xmlns="http://www.w3.org/2000/svg">
<path fill-rule="evenodd" clip-rule="evenodd" d="M38.5461 19.7529C38.5461 19.7147 38.5461 19.6764 38.5461 19.6382C38.5461 19.6128 38.5461 19.6 38.5461 19.5746V19.5618C38.5461 19.5109 38.5461 19.4727 38.5461 19.4217C38.5461 19.409 38.5461 19.3963 38.5461 19.3835C38.5461 19.3453 38.5461 19.3198 38.5461 19.2816C38.5461 19.2562 38.5461 19.218 38.5461 19.1925C38.5461 19.1798 38.5461 19.1798 38.5461 19.167C38.5461 19.1033 38.5315 19.0524 38.5315 18.9887C38.5315 18.9378 38.517 18.8868 38.517 18.8359C38.517 18.8104 38.517 18.785 38.5024 18.7595C38.5024 18.7213 38.4878 18.6958 38.4878 18.6576C38.4878 18.6449 38.4878 18.6194 38.4878 18.6067C38.4878 18.5684 38.4732 18.5302 38.4732 18.4793C38.4732 18.4538 38.4732 18.4411 38.4587 18.4156C38.4587 18.3901 38.4587 18.3647 38.4441 18.3392C38.4441 18.3137 38.4295 18.2755 38.4295 18.2501C38.4295 18.2373 38.4295 18.2119 38.415 18.1991C38.4004 18.1482 38.4004 18.0845 38.3858 18.0336C38.3858 18.0081 38.3712 17.9953 38.3712 17.9699C38.3712 17.9444 38.3567 17.9189 38.3567 17.8935C38.3567 17.8553 38.3421 17.817 38.3421 17.7788C38.3275 17.7279 38.3275 17.6897 38.3129 17.6387C38.2984 17.5878 38.2984 17.5496 38.2838 17.4987C38.2838 17.4859 38.2838 17.4732 38.2838 17.4732V17.4604C38.2692 17.435 38.2692 17.3968 38.2692 17.3713C38.2692 17.3586 38.2692 17.3586 38.2692 17.3458C38.2692 17.3331 38.2546 17.3204 38.2546 17.3076C38.2546 17.2822 38.2401 17.2694 38.2401 17.2439C38.2255 17.193 38.2109 17.1421 38.1964 17.0911C38.1964 17.0911 38.1964 17.0911 38.1964 17.0784C38.1818 17.0274 38.1672 16.9765 38.1526 16.9383C38.1526 16.9256 38.1526 16.9128 38.1381 16.9001C38.1235 16.8746 38.1235 16.8491 38.1235 16.8237C38.1089 16.7855 38.1089 16.76 38.0944 16.7218C38.0944 16.709 38.0944 16.709 38.0944 16.6963C38.0798 16.6581 38.0652 16.6199 38.0506 16.569C38.0506 16.5562 38.0361 16.5307 38.0361 16.518C38.0215 16.4671 38.0069 16.4034 37.9778 16.3525C37.9778 16.3397 37.9632 16.3142 37.9632 16.3015C37.9632 16.2888 37.9632 16.2888 37.9632 16.276V16.2633C37.9632 16.2506 37.9486 16.2251 37.9486 16.2124C37.9486 16.1996 37.9341 16.1742 37.9341 16.1614V16.1487C37.9195 16.1105 37.9049 16.0595 37.8903 16.0213C37.8758 15.9831 37.8612 15.9449 37.8466 15.9194C37.8466 15.9067 37.8321 15.9067 37.8321 15.894V15.8812V15.8685C37.8175 15.8558 37.8175 15.8303 37.8029 15.8048C37.8029 15.7921 37.7883 15.7793 37.7883 15.7539C37.7738 15.7284 37.7592 15.7029 37.7592 15.6647C37.7592 15.652 37.7446 15.6265 37.7446 15.6138C37.7446 15.6138 37.7446 15.6138 37.7446 15.601C37.73 15.5628 37.7155 15.5246 37.7009 15.4864C37.6863 15.461 37.6718 15.4228 37.6572 15.3973V15.3845C37.6426 15.3591 37.628 15.3336 37.628 15.3081C37.6135 15.2827 37.6135 15.2699 37.5989 15.2445C37.5989 15.2317 37.5989 15.2317 37.5843 15.2317C37.5698 15.1935 37.5552 15.168 37.5406 15.1298C37.526 15.1044 37.5115 15.0662 37.4969 15.0407C37.4823 15.0025 37.4532 14.9643 37.4386 14.9133C37.4386 14.9006 37.424 14.9006 37.424 14.8879C37.3949 14.8242 37.3657 14.7732 37.3366 14.7223C37.3366 14.7096 37.3366 14.7096 37.322 14.7096C37.2929 14.6586 37.2637 14.6077 37.2346 14.5567C37.22 14.544 37.22 14.5313 37.2054 14.5185C37.1763 14.4803 37.1617 14.4294 37.1326 14.3912V14.3784C37.1034 14.3275 37.0743 14.2638 37.0306 14.2129C37.016 14.1874 37.0014 14.1619 36.9869 14.1365C36.9577 14.0982 36.9286 14.0473 36.914 14.0091L36.8994 13.9964C36.8703 13.9582 36.8411 13.9072 36.812 13.869C36.7828 13.8181 36.7537 13.7799 36.7246 13.7289C36.6663 13.6398 36.5934 13.5379 36.5351 13.4487C36.4623 13.3468 36.3894 13.245 36.3311 13.1558C35.9376 12.6209 35.4859 12.0988 34.9904 11.6021C34.8593 11.462 34.7136 11.3346 34.5824 11.2073C34.5387 11.1691 34.495 11.1309 34.4513 11.0799C34.4075 11.0417 34.3638 11.0035 34.3201 10.9526C34.2618 10.9016 34.189 10.8379 34.1307 10.787C34.0724 10.736 33.9995 10.6724 33.9412 10.6214C33.8829 10.5705 33.8246 10.5195 33.7664 10.4813C33.7226 10.4431 33.6644 10.4049 33.6206 10.3667C33.5623 10.3285 33.5186 10.2776 33.4603 10.2394C33.3729 10.1629 33.2709 10.0993 33.1689 10.0229C33.0523 9.94644 32.9357 9.85729 32.8337 9.78088C32.7754 9.74267 32.7026 9.69173 32.6443 9.65352C31.7408 9.05495 30.8227 8.54553 29.8755 8.13799C29.8027 8.11252 29.7444 8.07431 29.6715 8.04884C29.4967 7.97242 29.3072 7.89601 29.1323 7.83233C29.0012 7.78139 28.8555 7.73045 28.7243 7.6795C28.6515 7.65403 28.5932 7.62856 28.5203 7.60309C28.462 7.57762 28.4037 7.56488 28.3454 7.53941C28.3163 7.52668 28.3017 7.52667 28.2726 7.51394C28.2289 7.5012 28.1851 7.48847 28.1414 7.47573C27.9228 7.39932 27.7043 7.33564 27.4857 7.27196C27.4128 7.24649 27.3254 7.23376 27.2525 7.20828H27.2379C27.2234 7.20828 27.2088 7.19555 27.1942 7.19555C27.1214 7.18281 27.0631 7.15734 26.9902 7.14461C26.9756 7.14461 26.9611 7.13187 26.9465 7.13187C26.9173 7.11913 26.8882 7.11914 26.859 7.1064C26.8299 7.09367 26.7862 7.09366 26.757 7.08093C26.7425 7.08093 26.7425 7.08093 26.7279 7.06819C26.6988 7.05546 26.655 7.05546 26.6259 7.04272C26.6113 7.04272 26.5822 7.02999 26.5676 7.02999C26.5093 7.01725 26.451 7.00452 26.3927 6.99178C26.3636 6.97905 26.3344 6.97904 26.3053 6.96631C26.2907 6.96631 26.2762 6.96631 26.2616 6.95357C26.2179 6.94084 26.1596 6.9281 26.1159 6.9281C26.0867 6.91537 26.0576 6.91537 26.0284 6.91537C25.9847 6.90263 25.941 6.90263 25.8827 6.88989C25.8244 6.87716 25.7661 6.87716 25.7078 6.86443C25.6933 6.85169 25.6787 6.85169 25.6641 6.85169C25.635 6.85169 25.6058 6.83895 25.5767 6.83895C25.5184 6.82622 25.4601 6.81348 25.4164 6.81348C25.4018 6.81348 25.3727 6.81348 25.3581 6.80075H25.3435C25.3435 6.80075 25.3435 6.80075 25.3289 6.80075C25.2707 6.78801 25.1978 6.77528 25.1395 6.77528H25.1249C25.1104 6.77528 25.0958 6.77528 25.0958 6.77528C25.0666 6.77528 25.0375 6.76254 25.0229 6.76254C25.0084 6.76254 24.9938 6.76254 24.9792 6.7498C24.9209 6.73707 24.8772 6.73707 24.8189 6.72433C24.8043 6.72433 24.7898 6.72433 24.7752 6.7116C24.7752 6.7116 24.7752 6.7116 24.7606 6.7116C24.7315 6.7116 24.7169 6.69886 24.6878 6.69886H24.6732C24.6586 6.69886 24.644 6.69886 24.6149 6.68612C24.5566 6.67339 24.5129 6.67339 24.4546 6.66066C24.4255 6.66066 24.3963 6.64792 24.3817 6.64792C24.3672 6.64792 24.3526 6.64792 24.338 6.64792H24.3235C24.3089 6.64792 24.2943 6.64792 24.2797 6.64792C24.2506 6.64792 24.236 6.64792 24.2069 6.63518C24.1632 6.63518 24.134 6.62245 24.0903 6.62245H24.0757C24.0029 6.60971 23.9154 6.60971 23.8426 6.59698C23.8426 6.59698 23.8426 6.59698 23.828 6.59698C23.7988 6.59698 23.7551 6.58424 23.726 6.58424C23.6677 6.58424 23.624 6.5715 23.5657 6.5715C23.522 6.5715 23.4928 6.55877 23.4491 6.55877C23.3763 6.54603 23.3034 6.54604 23.2159 6.54604C22.9391 6.5333 22.6622 6.52056 22.3853 6.50783C22.327 6.50783 22.2833 6.50783 22.225 6.50783C22.021 6.50783 21.8024 6.49509 21.5984 6.50783C21.511 6.50783 21.4235 6.50783 21.3507 6.50783C21.2487 6.50783 21.1467 6.50783 21.0447 6.50783C20.9427 6.50783 20.8407 6.50783 20.7386 6.52056C20.6366 6.52056 20.5346 6.5333 20.4326 6.5333C20.2286 6.54603 20.0246 6.55877 19.8206 6.5715C19.7186 6.58424 19.6166 6.58424 19.5291 6.59698C19.4126 6.60971 19.296 6.62245 19.1794 6.62245C19.092 6.63518 19.0045 6.63518 18.9025 6.64792C18.8005 6.66065 18.6985 6.67339 18.5965 6.68612C18.5091 6.69886 18.4071 6.7116 18.3196 6.72433C18.2905 6.72433 18.2759 6.73707 18.2468 6.73707C18.1593 6.74981 18.0865 6.76254 17.999 6.76254C17.9845 6.76254 17.9699 6.76254 17.9553 6.76254C17.8679 6.77527 17.7805 6.78801 17.693 6.80075C17.6784 6.80075 17.6639 6.80074 17.6347 6.81348C17.5473 6.82622 17.4599 6.83895 17.3579 6.85169C17.2558 6.86443 17.1538 6.87716 17.0518 6.90263C17.0373 6.90263 17.0227 6.90263 17.0081 6.91537C16.9207 6.9281 16.8332 6.94084 16.7458 6.95357C16.5418 6.99178 16.3378 7.02999 16.1338 7.06819C16.0463 7.08093 15.9589 7.1064 15.8715 7.11914C15.6966 7.15734 15.5217 7.19555 15.3323 7.23376C15.274 7.24649 15.2157 7.25923 15.1574 7.27196C15.0554 7.29743 14.9534 7.32291 14.8514 7.33564C14.7785 7.34838 14.7057 7.37385 14.6474 7.38658L14.5162 7.01725C14.4142 6.7116 14.2102 6.44415 13.9333 6.22765C13.8751 6.18944 13.8313 6.15123 13.773 6.11302C13.7148 6.07482 13.6565 6.03661 13.5982 5.9984C12.855 5.48898 11.9952 5.00502 11.0189 4.64843C10.946 4.62296 10.8731 4.59749 10.7857 4.57202C10.7274 4.54655 10.6546 4.53381 10.5963 4.50834C10.4943 4.47013 10.4068 4.44466 10.3048 4.41919C10.2757 4.40645 10.232 4.40645 10.2028 4.39372C10.1299 4.36824 10.0717 4.35551 9.9988 4.34277C9.76564 7.78139 8.36669 8.06157 11.0043 9.8955C10.6108 8.22713 12.2429 8.87665 11.9952 6.64792C14.7203 8.49458 12.9133 9.1823 11.5726 11.9714C11.5726 12.0223 11.5726 12.0606 11.558 12.1115C11.2957 11.5002 10.8149 11.1181 10.1299 10.9398C9.00788 11.5384 7.57978 13.1303 6.3557 14.8114C5.21906 16.3779 5.29192 16.4034 4.28643 18.6831C3.38294 20.7462 5.23363 20.1349 4.05327 22.8603C4.03869 22.9113 4.00955 22.9622 3.9804 23.0132C2.82919 25.5221 2.43573 29.0626 1.15336 30.7819C-0.813909 31.6734 -0.0270002 34.0167 1.73626 35.1375C1.7654 35.1502 1.77998 35.1629 1.80912 35.1884C1.83827 35.2011 1.85284 35.2139 1.88198 35.2394C1.98399 35.303 2.10057 35.3667 2.20257 35.4177C3.58695 36.1818 4.51958 36.1181 5.59794 35.5832C5.97682 35.9398 6.55972 36.1054 7.30291 36.0672C8.64357 35.2903 9.18275 33.9276 8.93502 31.9663C11.0772 30.8965 12.9278 26.5027 13.2776 25.2292C12.855 25.3183 12.4178 25.3311 11.9661 25.2801C11.3103 26.7702 9.63449 29.6739 7.82751 30.7055C8.61442 29.9795 10.5963 26.49 11.3395 24.1084C12.1701 24.2867 13.1319 24.3122 14.2394 24.1976C14.2685 24.1976 14.2977 24.1976 14.3268 24.1849C14.4142 24.1721 14.4871 24.1594 14.5745 24.1594C14.662 24.1466 14.7348 24.1339 14.8223 24.1212C14.8805 24.1084 14.9388 24.0957 14.9971 24.083C16.9935 23.6245 18.5382 22.3254 19.4417 20.6953C19.4563 20.6826 19.4563 20.6698 19.4708 20.6444C19.8497 19.9566 20.1266 19.1925 20.2432 18.4029C20.2578 18.3519 20.2578 18.301 20.2723 18.2501C20.2723 18.1991 20.2869 18.1609 20.2869 18.11C20.2869 18.0718 20.3015 18.0463 20.3015 18.0081C20.4181 16.9765 20.2869 15.9322 19.8789 14.9643C19.3834 17.1675 17.9553 18.6321 15.6092 19.3835C15.6529 19.3453 15.7112 19.3071 15.7549 19.2562C15.784 19.2307 15.8132 19.1925 15.8569 19.167C15.9006 19.1288 15.9298 19.1033 15.9735 19.0651C16.0026 19.0397 16.0463 19.0015 16.0755 18.976C16.1921 18.8614 16.3086 18.7595 16.4106 18.6449C16.4398 18.6067 16.4835 18.5684 16.5127 18.543C17.795 17.1803 18.4216 15.7029 18.4216 14.0982C18.4216 14.0091 18.4216 13.9327 18.4216 13.8435C18.4216 13.7544 18.4071 13.678 18.4071 13.5888C18.4071 13.5506 18.3925 13.4997 18.3925 13.4615C18.3925 13.4105 18.3779 13.3723 18.3779 13.3214C18.3779 13.2832 18.3633 13.245 18.3633 13.194C18.3488 13.1049 18.3342 13.0157 18.3196 12.9266C18.3051 12.8756 18.3051 12.8374 18.2905 12.7865C18.2176 12.4426 18.1156 12.086 17.9845 11.7167C24.542 15.1298 23.3762 21.8415 19.5437 26.5282C18.3196 28.2857 17.1101 30.3871 15.988 32.6668C18.888 29.4956 22.8808 27.7763 26.9319 26.9485C20.01 30.4508 14.6765 36.2455 11.5872 44.8165L38.6481 21.1665C38.6481 21.1156 38.6627 21.0519 38.6627 21.0009C38.6627 20.9755 38.6627 20.95 38.6627 20.9245C38.6627 20.8991 38.6627 20.8736 38.6627 20.8481C38.6627 20.8099 38.6627 20.7717 38.6773 20.7208V20.6571C38.6773 20.6061 38.6772 20.5552 38.6918 20.5043C38.6918 20.4533 38.6918 20.4024 38.6918 20.3514C38.6918 20.3132 38.6918 20.2623 38.6918 20.2241C38.6918 20.1986 38.6918 20.1859 38.6918 20.1604C38.6918 20.1477 38.6918 20.1349 38.6918 20.1222C38.6918 20.0712 38.6918 20.033 38.6918 19.9821V19.9694C38.5461 19.893 38.5461 19.8293 38.5461 19.7529ZM12.5344 15.461C8.62899 16.2506 10.8731 19.3963 10.1591 20.5425C10.0717 19.9057 9.56163 19.3835 8.86215 19.1798C8.26469 19.0015 7.79837 18.6449 7.52149 18.1736C7.33205 17.8425 7.24462 17.4732 7.27376 17.0911C7.27376 17.0784 7.27376 17.0784 7.27376 17.0656C7.31748 17.193 7.37577 17.3076 7.43406 17.3968C7.82751 18.0718 8.94959 18.0463 9.3139 17.3713C9.3139 17.3713 9.3139 17.3586 9.32847 17.3586C9.5762 16.8873 9.91137 16.4671 10.334 16.1105C11.5872 15.0662 12.957 15.3845 12.5344 15.461Z" fill="white"/>
<path fill-rule="evenodd" clip-rule="evenodd" d="M15.7695 0L9.95508 3.64238C9.95508 3.64238 14.6911 4.27917 15.784 6.73714C15.4926 5.14519 16.9498 5.10698 21.4527 5.03056C38.5461 4.73764 41.1254 19.5109 41.1254 19.5109L47.1584 14.2511C44.6519 10.838 40.9505 7.8324 36.8703 5.96026C37.6135 5.65461 38.3858 5.38716 39.1873 5.11971C29.0303 -2.35609 14.6765 4.62303 15.7695 0Z" fill="#7171E9"/>
<path d="M48.4845 26.5254L31.2844 41.5532L32.7886 42.8682L49.9886 27.8404L48.4845 26.5254Z" fill="#7171E9"/>
<path d="M20.8552 42.1168L19.3542 40.805L48.499 15.321L50 16.6455L49.8688 16.7602L20.8552 42.1168Z" fill="#7171E9"/>
<path d="M36.2146 34.2587L18.2031 49.9999L16.7021 48.6754L16.8479 48.5608L34.8448 32.8196L36.3457 34.1441L36.2146 34.2587Z" fill="#7171E9"/>
</svg>
