<svg width="59" height="71" viewBox="0 0 59 71" fill="none" xmlns="http://www.w3.org/2000/svg">
<g clip-path="url(#clip0_3_238)">
<path d="M2.10131 46.9736C2.07636 47.0016 2.05141 47.0287 2.02742 47.0529L2.00439 47.021C2.00439 47.021 2.00727 47.0161 2.00919 47.0142C2.00919 47.0142 2.01015 47.0136 2.01207 47.0123C2.01207 47.0123 2.01495 47.0074 2.01879 47.0045C2.02647 46.9948 2.03414 46.9852 2.04182 46.9765C2.05429 46.9639 2.06485 46.9513 2.07636 46.9368C2.08308 46.9445 2.08884 46.9542 2.09364 46.9619L2.10131 46.9726V46.9736Z" fill="black"/>
<path d="M31.7758 42.8985C31.7758 42.8985 31.7664 42.9052 31.7617 42.9062L31.7598 42.9043C31.7598 42.9043 31.7692 42.9014 31.7749 42.8976L31.7758 42.8985Z" fill="black"/>
<path d="M31.7612 42.9045L31.7631 42.9064C31.7631 42.9064 31.7725 42.9017 31.7773 42.8988C31.7707 42.9017 31.7669 42.9036 31.7622 42.9055L31.7612 42.9045Z" fill="black"/>
<path d="M18.359 68.8453C19.4222 68.8453 20.284 67.976 20.284 66.9036C20.284 65.8312 19.4222 64.9619 18.359 64.9619C17.2959 64.9619 16.4341 65.8312 16.4341 66.9036C16.4341 67.976 17.2959 68.8453 18.359 68.8453Z" fill="black"/>
<path d="M56.5011 44.246C56.337 43.8511 55.8389 43.9285 55.1029 44.0912C54.5262 44.2112 53.6242 44.4609 52.9141 44.6981C52.6492 44.7813 52.3738 44.8733 52.0965 44.9681C51.2444 45.2556 50.3625 45.5528 49.5958 45.6399C49.1621 45.6902 48.8521 45.6244 48.6467 45.4405C48.3665 45.1907 48.2322 44.6952 48.2207 43.8782C48.2159 43.3226 48.261 42.6634 48.3099 41.9655C48.3963 40.7062 48.4951 39.2785 48.307 38.0744C48.1957 37.3997 48.0288 36.3776 47.2045 36.0165L47.1795 36.0068C46.2209 35.6623 45.1173 36.4463 44.2287 37.0745L44.1414 37.1374C42.6224 38.2051 41.1801 39.8041 39.9086 41.2163L39.6256 41.5309L39.497 41.6635C39.2244 41.9491 39.0066 42.1766 38.7533 42.3314C38.6938 42.1611 38.6496 41.8068 38.6189 41.559C38.5422 40.9473 38.4548 40.2542 38.1065 39.8022C37.5912 39.0472 36.6105 38.8178 35.5473 39.202C34.7834 39.475 34.1961 40.1264 33.5724 40.8166C32.846 41.6209 32.0937 42.4534 30.9882 42.8038C30.5516 42.9209 30.0718 42.9567 29.64 42.9819C28.8723 43.0138 28.096 42.9993 27.3225 42.9499C26.2219 42.8802 24.5886 42.6876 22.7875 42.4456C26.8533 36.697 30.8491 30.8874 34.7297 25.0835C38.736 19.0319 41.9574 14.1709 45.4081 8.44355C46.6124 6.4215 47.8484 4.26975 48.6563 2.42968C49.0402 1.54207 49.2283 0.895482 49.2187 0.495719C49.2091 0.00109732 48.8972 -0.116992 48.3118 0.10854C47.2237 0.503463 45.1404 2.25642 43.9783 3.31342C39.6515 7.22587 34.6184 12.5989 30.6245 16.9537C29.0652 18.6757 16.1106 32.0896 8.09217 40.5156C2.6877 40.1361 -3.17545 40.7033 2.0131 47.0666C2.03614 47.0589 2.06492 47.0463 2.08507 47.0298L2.1225 47.0018L2.10235 46.9718C2.0774 46.9998 2.05245 47.0269 2.02846 47.0511L2.00543 47.0192C2.00543 47.0192 2.00831 47.0144 2.01023 47.0124C2.01023 47.0124 2.01119 47.0118 2.0131 47.0105C2.0131 47.0105 2.01598 47.0056 2.01982 47.0027C2.0275 46.9931 2.03518 46.9834 2.04285 46.9747C2.05533 46.9621 2.06588 46.9495 2.0774 46.935C1.33467 45.7783 0.221533 44.1928 0.481585 42.7738C0.824162 41.0963 4.09256 41.0111 7.32833 41.319C4.77387 44.0079 2.82397 46.0832 2.0774 46.935C2.08412 46.9427 2.08987 46.9524 2.09467 46.9602L2.10235 46.9708C2.19639 46.8701 2.30098 46.7482 2.38927 46.6601C2.847 46.1984 4.88231 44.1502 7.66706 41.3509C10.1208 41.6055 12.4967 42.0614 13.4976 42.1978C15.1184 42.4757 17.1421 42.8309 19.0834 43.1455C18.3225 44.2509 17.5663 45.3572 16.8159 46.4626C13.2174 51.737 9.46535 57.3162 6.22671 62.428C5.17115 64.0957 4.33533 65.4702 3.73846 66.5069C3.04275 67.7149 2.67715 68.467 2.65316 68.7322V68.7342C2.64068 68.8716 2.72033 68.8793 2.89114 68.7545C3.06195 68.6316 3.32296 68.375 3.67417 67.9917C5.25751 66.2291 7.25731 63.6321 9.06904 61.2509C13.4083 55.4887 17.7275 49.5756 21.9766 43.5907C22.2568 43.6304 22.5274 43.6662 22.7875 43.7011C25.1298 43.9856 27.526 44.2906 29.9067 44.1037C30.3827 44.0544 30.8778 43.9886 31.3471 43.8395L31.349 43.8472C32.6454 43.4678 33.3191 43.0206 34.0973 42.5028C34.3852 42.3121 34.6846 42.1127 35.0358 41.9036C35.6758 41.5367 35.9186 41.5464 36.0069 41.5861C36.0894 41.6229 36.1365 41.7584 36.1624 41.8658L36.1691 41.891C36.2487 42.1553 36.2602 42.5802 36.2727 43.0283C36.3025 44.1212 36.3389 45.4811 37.4031 45.9961L37.431 46.0067C38.5067 46.4249 39.6591 45.6021 40.5928 44.9391C41.3384 44.3873 42.1522 43.6749 42.8249 42.9887C43.4217 42.3895 43.9697 41.7584 44.4994 41.1467C44.8016 40.7992 45.0866 40.471 45.362 40.169C45.4781 40.0442 45.5655 39.959 45.6326 39.897C45.6346 39.9193 45.6355 39.9416 45.6355 39.9667C45.6461 40.4217 45.6182 40.9337 45.5885 41.4758C45.5012 43.0525 45.4023 44.8403 46.1758 46.3271C46.7659 47.5041 47.7102 47.8468 48.6611 47.8468C49.2551 47.8468 49.8501 47.7142 50.3654 47.5661C51.6465 47.1944 52.916 46.6262 53.8871 46.1684L54.1952 46.0164C54.9312 45.6563 55.4618 45.394 56.0952 44.9943C56.264 44.882 56.6604 44.6187 56.5039 44.2422L56.5011 44.246ZM19.8492 42.0362C17.3245 41.6693 14.8516 41.2889 13.3316 41.0837C12.1225 40.9395 10.3386 40.6937 8.46737 40.5465C16.268 32.6984 28.8646 20.0241 30.3702 18.4783C35.1548 13.5611 40.8567 7.52012 45.6317 2.82073C46.5193 1.95151 47.8618 0.673822 48.3445 0.353431C48.855 -0.0182616 49.0584 -0.00858215 48.925 0.423123C48.3781 1.79277 47.168 3.49733 46.0577 5.18737C44.3602 7.69919 42.3681 10.5091 40.5113 13.1091C33.6943 22.5843 26.5865 32.3006 19.8501 42.0362H19.8492ZM31.7616 42.9064L31.7597 42.9044C31.7597 42.9044 31.7693 42.9015 31.7751 42.8977C31.7703 42.9006 31.7655 42.9044 31.7607 42.9054L31.7616 42.9064Z" fill="black"/>
<path d="M2.05371 46.9923L2.01787 47.0193L2.01504 47.0165C2.01504 47.0165 2.01315 47.0137 2.01221 47.0119C2.01409 47.01 2.01504 47.0072 2.01881 47.0044C2.02636 46.9951 2.0339 46.9858 2.04145 46.9774C2.04617 46.9821 2.05088 46.9877 2.05371 46.9923Z" fill="black"/>
<path d="M2.01207 47.0133C2.01207 47.0133 2.01015 47.0152 2.00919 47.0152C2.01111 47.0181 2.01399 47.0201 2.01591 47.023V47.0181C2.01591 47.0181 2.01783 47.0104 2.01879 47.0056C2.01591 47.0085 2.01399 47.0123 2.01207 47.0133ZM31.7606 42.9044L31.7625 42.9063C31.7625 42.9063 31.7721 42.9015 31.7769 42.8986C31.7702 42.9015 31.7664 42.9034 31.7616 42.9053L31.7606 42.9044ZM2.09364 46.963C2.08884 46.9552 2.08308 46.9456 2.07636 46.9378C2.06581 46.9523 2.05429 46.9649 2.04182 46.9775C2.03414 46.9872 2.02647 46.9969 2.01879 47.0056C2.01591 47.0085 2.01399 47.0123 2.01207 47.0133C2.01207 47.0133 2.01111 47.014 2.00919 47.0152C2.00919 47.0152 2.00631 47.0201 2.00439 47.022L2.02742 47.054C2.05046 47.0307 2.07636 47.0036 2.10131 46.9746L2.09364 46.9639V46.963Z" fill="black"/>
</g>
<defs>
<clipPath id="clip0_3_238">
<rect width="59" height="71" fill="white"/>
</clipPath>
</defs>
</svg>
