<svg width="37" height="37" viewBox="0 0 37 37" fill="none" xmlns="http://www.w3.org/2000/svg">
<path d="M35.4416 26.7732C35.1111 26.3662 34.5561 26.2157 34.0677 26.3909C32.6987 26.8817 31.2137 27.1333 29.6499 27.1333C22.1685 27.1333 16.0832 21.0456 16.0832 13.5667C16.0832 9.065 18.3057 4.87413 22.0279 2.3532C22.4497 2.06707 22.6519 1.55153 22.5385 1.05573C22.425 0.559933 22.018 0.185 21.5123 0.111C20.9351 0.0271333 20.3604 0 19.7832 0C9.58107 0 1.2832 8.29787 1.2832 18.5C1.2832 28.7021 9.58107 37 19.7832 37C26.2582 37 32.1486 33.7095 35.5353 28.1989C35.8091 27.7525 35.7697 27.1827 35.4416 26.7732Z" fill="white"/>
</svg>
