<svg width="535" height="639" viewBox="0 0 535 639" fill="none" xmlns="http://www.w3.org/2000/svg">
<g clip-path="url(#clip0_3_256)">
<path d="M19.0561 422.762C18.8299 423.015 18.6036 423.259 18.3861 423.477L18.1772 423.189C18.1772 423.189 18.2034 423.145 18.2208 423.128C18.2208 423.128 18.2295 423.122 18.2469 423.111C18.2469 423.111 18.273 423.067 18.3078 423.041C18.3774 422.954 18.447 422.867 18.5166 422.788C18.6297 422.675 18.7254 422.562 18.8299 422.431C18.8908 422.501 18.943 422.588 18.9865 422.658L19.0561 422.753V422.762Z" fill="white"/>
<path d="M288.14 386.087C288.14 386.087 288.053 386.148 288.009 386.156L287.992 386.139C287.992 386.139 288.079 386.113 288.131 386.078L288.14 386.087Z" fill="white"/>
<path d="M288 386.139L288.018 386.156C288.018 386.156 288.105 386.113 288.148 386.087C288.087 386.113 288.053 386.13 288.009 386.148L288 386.139Z" fill="white"/>
<path d="M166.476 619.608C176.116 619.608 183.931 611.784 183.931 602.133C183.931 592.481 176.116 584.657 166.476 584.657C156.836 584.657 149.021 592.481 149.021 602.133C149.021 611.784 156.836 619.608 166.476 619.608Z" fill="white"/>
<path d="M512.342 398.213C510.854 394.659 506.338 395.356 499.664 396.819C494.434 397.899 486.255 400.147 479.816 402.281C477.414 403.03 474.917 403.858 472.402 404.712C464.675 407.299 456.678 409.974 449.726 410.758C445.793 411.211 442.982 410.618 441.12 408.963C438.579 406.715 437.361 402.255 437.257 394.903C437.213 389.902 437.622 383.97 438.066 377.689C438.849 366.355 439.745 353.505 438.04 342.668C437.031 336.596 435.517 327.397 428.042 324.147L427.816 324.06C419.123 320.959 409.116 328.015 401.059 333.669L400.267 334.235C386.493 343.844 373.414 358.236 361.885 370.946L359.318 373.777L358.152 374.971C355.681 377.54 353.705 379.588 351.408 380.981C350.869 379.448 350.469 376.26 350.19 374.03C349.494 368.524 348.702 362.287 345.543 358.218C340.871 351.423 331.978 349.359 322.337 352.817C315.41 355.274 310.085 361.137 304.429 367.348C297.842 374.587 291.02 382.079 280.996 385.233C277.037 386.287 272.686 386.609 268.771 386.836C261.809 387.123 254.77 386.992 247.757 386.548C237.776 385.921 222.966 384.187 206.634 382.009C243.502 330.272 279.734 277.985 314.923 225.751C351.252 171.286 380.462 127.537 411.753 75.9906C422.673 57.7922 433.881 38.4264 441.207 21.8658C444.688 13.8773 446.393 8.05799 446.306 4.46013C446.219 0.00853314 443.391 -1.05427 438.083 0.975514C428.216 4.52982 409.325 20.3064 398.788 29.8194C359.553 65.0314 313.914 113.389 277.698 152.582C263.558 168.08 146.089 288.805 73.3795 364.639C24.373 361.224 -28.7929 366.329 18.2559 423.598C18.4647 423.529 18.7257 423.415 18.9085 423.267L19.2478 423.015L19.0651 422.745C18.8389 422.997 18.6126 423.241 18.3951 423.459L18.1862 423.171C18.1862 423.171 18.2124 423.128 18.2298 423.111C18.2298 423.111 18.2385 423.105 18.2559 423.093C18.2559 423.093 18.282 423.049 18.3168 423.023C18.3864 422.936 18.456 422.849 18.5256 422.771C18.6387 422.657 18.7344 422.544 18.8389 422.414C12.1039 412.003 2.01025 397.734 4.36834 384.963C7.47476 369.866 37.1119 369.099 66.4532 371.869C43.2899 396.07 25.6086 414.747 18.8389 422.414C18.8998 422.483 18.952 422.57 18.9955 422.64L19.0651 422.736C19.9178 421.83 20.8663 420.732 21.6668 419.939C25.8174 415.784 44.2732 397.35 69.5248 372.157C91.7744 374.448 113.319 378.551 122.395 379.779C137.092 382.28 155.443 385.477 173.046 388.308C166.146 398.256 159.289 408.214 152.484 418.162C119.854 465.632 85.8313 515.845 56.4639 561.85C46.8923 576.86 39.3134 589.231 33.9011 598.561C27.5925 609.433 24.2773 616.202 24.0597 618.589V618.606C23.9466 619.843 24.6688 619.913 26.2177 618.789C27.7665 617.683 30.1333 615.374 33.3181 611.924C47.6755 596.061 65.8093 572.688 82.2376 551.257C121.586 499.397 160.751 446.179 199.281 392.315C201.822 392.672 204.275 392.995 206.634 393.308C227.874 395.87 249.601 398.614 271.19 396.932C275.506 396.488 279.995 395.896 284.25 394.554L284.268 394.624C296.024 391.209 302.132 387.184 309.189 382.523C311.799 380.807 314.514 379.013 317.699 377.131C323.503 373.829 325.704 373.916 326.505 374.274C327.253 374.605 327.679 375.824 327.914 376.791L327.975 377.018C328.698 379.396 328.802 383.22 328.915 387.254C329.185 397.089 329.515 409.329 339.165 413.963L339.418 414.059C349.172 417.823 359.622 410.418 368.089 404.45C374.85 399.485 382.229 393.073 388.329 386.897C393.741 381.504 398.709 375.824 403.513 370.319C406.254 367.191 408.838 364.238 411.335 361.52C412.388 360.396 413.18 359.63 413.789 359.072C413.806 359.272 413.815 359.473 413.815 359.699C413.911 363.794 413.658 368.402 413.389 373.28C412.597 387.472 411.701 403.562 418.714 416.943C424.065 427.536 432.628 430.62 441.251 430.62C446.637 430.62 452.032 429.426 456.705 428.093C468.321 424.748 479.833 419.635 488.639 415.514L491.432 414.146C498.106 410.906 502.918 408.545 508.661 404.947C510.192 403.936 513.786 401.567 512.368 398.178L512.342 398.213ZM179.99 378.324C157.096 375.023 134.673 371.599 120.889 369.752C109.926 368.454 93.7496 366.242 76.7818 364.917C147.516 294.284 261.74 180.215 275.392 166.303C318.778 122.048 370.482 67.6798 413.78 25.3852C421.829 17.5623 434.002 6.06305 438.379 3.17953C443.008 -0.165697 444.853 -0.0785822 443.644 3.80676C438.684 16.1336 427.711 31.4746 417.644 46.685C402.251 69.2914 384.187 94.581 367.349 117.98C305.534 203.257 241.083 290.704 179.998 378.324H179.99ZM288.009 386.156L287.992 386.139C287.992 386.139 288.079 386.113 288.131 386.078C288.088 386.104 288.044 386.139 288.001 386.147L288.009 386.156Z" fill="white"/>
<path d="M18.6307 422.937L18.2994 423.19L18.2732 423.164C18.2732 423.164 18.2558 423.137 18.2471 423.12C18.2645 423.102 18.2732 423.076 18.3081 423.05C18.3778 422.963 18.4476 422.876 18.5173 422.797C18.5609 422.841 18.6045 422.893 18.6307 422.937Z" fill="white"/>
<path d="M18.2469 423.119C18.2469 423.119 18.2295 423.137 18.2208 423.137C18.2382 423.163 18.2643 423.18 18.2817 423.207V423.163C18.2817 423.163 18.2991 423.093 18.3078 423.05C18.2817 423.076 18.2643 423.111 18.2469 423.119ZM288.001 386.139L288.018 386.156C288.018 386.156 288.105 386.113 288.148 386.087C288.088 386.113 288.053 386.13 288.009 386.148L288.001 386.139ZM18.9865 422.666C18.943 422.597 18.8908 422.51 18.8299 422.44C18.7341 422.571 18.6297 422.684 18.5166 422.797C18.447 422.884 18.3774 422.971 18.3078 423.05C18.2817 423.076 18.2643 423.111 18.2469 423.119C18.2469 423.119 18.2382 423.125 18.2208 423.137C18.2208 423.137 18.1946 423.18 18.1772 423.198L18.3861 423.485C18.5949 423.276 18.8299 423.032 19.0561 422.771L18.9865 422.675V422.666Z" fill="white"/>
</g>
<defs>
<clipPath id="clip0_3_256">
<rect width="535" height="639" fill="white"/>
</clipPath>
</defs>
</svg>
